<?xml version="1.0" encoding="utf-8"?>
<!-- Generator: Adobe Illustrator 14.0.0, SVG Export Plug-In . SVG Version: 6.00 Build 43363)  -->
<!DOCTYPE svg PUBLIC "-//W3C//DTD SVG 1.1//EN" "http://www.w3.org/Graphics/SVG/1.1/DTD/svg11.dtd">
<svg version="1.1" id="Layer_1" xmlns="http://www.w3.org/2000/svg" xmlns:xlink="http://www.w3.org/1999/xlink" x="0px" y="0px"
	 width="1409.942px" height="1394.72px" viewBox="0 0 1409.942 1394.72" enable-background="new 0 0 1409.942 1394.72"
	 xml:space="preserve">
<g>
	<g>
		<path fill="#B07C20" d="M442.03,19.872l-4.711-2.354l0.431,0.574l1.525,1.779c145.741,150.211,292.18,303.443,438.098,451.185
			c80.535,7.628,140.4,39.913,192.184,79.216c51.15,38.82,90.828,92.834,115.725,155.676
			c25.551,64.486,34.236,155.949,13.09,233.514c-19.193,70.391-54.771,125.266-101.262,170.83
			c-45.234,44.338-103.191,79.611-175.65,95.748c-39.525,8.805-80.822,12.564-123.301,8.268
			c-40.303-4.078-75.842-14.541-108.147-28.242c-61.472-26.07-113.891-67.533-152.232-119.168
			c-38.917-52.408-66.852-116.668-73.705-198.383C325.761,729.208,184.2,591.396,45.951,453.148
			c-9.299-9.3-17.799-19.398-28.242-27.554c161.523,317.885,323.493,635.366,484.25,954.032h892.725V503.432
			C1077.529,341.809,758.422,182.243,442.03,19.872z M643.169,1062.763c47.218,42.711,118.401,82.744,212.161,75.082
			c84.361-6.893,147.777-41.617,194.938-92.992c42.568-46.371,82.215-119.848,75.082-211.469
			c-6.748-86.699-42.795-150.429-92.303-195.629c-47.166-43.063-121.09-81.918-213.537-75.083
			c-88.576,6.55-151.583,44.461-195.628,93.682c-44.253,49.453-78.703,117.289-74.394,212.16
			C553.343,953.399,596.098,1020.187,643.169,1062.763z"/>
	</g>
</g>
</svg>
